<?xml version="1.0" encoding="UTF-8"?>
<svg width="512" height="512" viewBox="0 0 512 512" xmlns="http://www.w3.org/2000/svg">
  <defs>
    <!-- グラデーション定義 -->
    <linearGradient id="windowGradient" x1="0%" y1="0%" x2="100%" y2="100%">
      <stop offset="0%" style="stop-color:#E0E7FF;stop-opacity:0.9"/>
      <stop offset="100%" style="stop-color:#C7D2FE;stop-opacity:0.7"/>
    </linearGradient>

    <linearGradient id="frameGradient" x1="0%" y1="0%" x2="0%" y2="100%">
      <stop offset="0%" style="stop-color:#6B7280;stop-opacity:1"/>
      <stop offset="100%" style="stop-color:#374151;stop-opacity:1"/>
    </linearGradient>

    <!-- ドロップシャドウ -->
    <filter id="dropshadow" x="-20%" y="-20%" width="140%" height="140%">
      <feGaussianBlur in="SourceAlpha" stdDeviation="8"/>
      <feOffset dx="0" dy="4" result="offset"/>
      <feComponentTransfer>
        <feFuncA type="linear" slope="0.2"/>
      </feComponentTransfer>
      <feMerge>
        <feMergeNode/>
        <feMergeNode in="SourceGraphic"/>
      </feMerge>
    </filter>
  </defs>

  <!-- 背景円形 -->
  <circle cx="256" cy="256" r="240" fill="url(#windowGradient)" opacity="0.1"/>

  <!-- メインウィンドウ（奥） -->
  <rect x="120" y="140" width="200" height="160" rx="12" ry="12"
        fill="url(#windowGradient)"
        stroke="url(#frameGradient)"
        stroke-width="2"
        opacity="0.6"
        filter="url(#dropshadow)"/>

  <!-- ウィンドウタイトルバー（奥） -->
  <rect x="120" y="140" width="200" height="28" rx="12" ry="12"
        fill="url(#frameGradient)"
        opacity="0.6"/>
  <rect x="120" y="156" width="200" height="12"
        fill="url(#frameGradient)"
        opacity="0.6"/>

  <!-- トラフィックライト（奥） -->
  <circle cx="135" cy="154" r="4" fill="#FF5F56" opacity="0.4"/>
  <circle cx="155" cy="154" r="4" fill="#FFBD2E" opacity="0.4"/>
  <circle cx="175" cy="154" r="4" fill="#27CA3F" opacity="0.4"/>

  <!-- メインウィンドウ（手前） -->
  <rect x="180" y="180" width="200" height="160" rx="12" ry="12"
        fill="url(#windowGradient)"
        stroke="url(#frameGradient)"
        stroke-width="3"
        opacity="0.9"
        filter="url(#dropshadow)"/>

  <!-- ウィンドウタイトルバー（手前） -->
  <rect x="180" y="180" width="200" height="28" rx="12" ry="12"
        fill="url(#frameGradient)"/>
  <rect x="180" y="196" width="200" height="12"
        fill="url(#frameGradient)"/>

  <!-- トラフィックライト（手前） -->
  <circle cx="195" cy="194" r="5" fill="#FF5F56"/>
  <circle cx="215" cy="194" r="5" fill="#FFBD2E"/>
  <circle cx="235" cy="194" r="5" fill="#27CA3F"/>

  <!-- キャプチャフォーカスフレーム -->
  <rect x="200" y="220" width="140" height="90" rx="6" ry="6"
        fill="none"
        stroke="#007AFF"
        stroke-width="3"
        stroke-dasharray="8,4"
        opacity="0.8">
    <animate attributeName="stroke-dashoffset" values="0;12;0" dur="2s" repeatCount="indefinite"/>
  </rect>

  <!-- 中央の透明効果を表現する円 -->
  <circle cx="280" cy="265" r="20"
          fill="none"
          stroke="#007AFF"
          stroke-width="2"
          opacity="0.6"/>
  <circle cx="280" cy="265" r="12"
          fill="#007AFF"
          opacity="0.3"/>
</svg>
